REM MD5 b30d2aa6529560af7350003b8762d28e
FILE "Euro Demo Germany 07-02 (Germany).bin" BINARY
  TRACK 01 MODE2/2352
    INDEX 01 00:00:00
  TRACK 02 AUDIO
    INDEX 00 46:49:03
    INDEX 01 46:51:03
  TRACK 03 AUDIO
    INDEX 00 47:47:58
    INDEX 01 47:49:58
  TRACK 04 AUDIO
    INDEX 00 48:28:31
    INDEX 01 48:30:31
REM LEADOUT 51:31:63
